<mxfile host="app.diagrams.net" modified="2022-05-07T07:57:43.713Z" agent="5.0 (X11; Linux x86_64) AppleWebKit/537.36 (KHTML, like Gecko) Chrome/99.0.4844.82 Safari/537.36" etag="UynZn-R7Voct3khZ166P" version="18.0.1" type="github">
  <diagram name="Page-1" id="a7904f86-f2b4-8e86-fa97-74104820619b">
    <mxGraphModel dx="1354" dy="773" grid="1" gridSize="10" guides="1" tooltips="1" connect="1" arrows="1" fold="1" page="1" pageScale="1" pageWidth="1100" pageHeight="850" background="none" math="0" shadow="0">
      <root>
        <mxCell id="0" />
        <mxCell id="1" parent="0" />
        <mxCell id="Pqw4lfBTpsAmDlQl7pAD-2" style="edgeStyle=orthogonalEdgeStyle;rounded=0;orthogonalLoop=1;jettySize=auto;html=1;entryX=0.5;entryY=0;entryDx=0;entryDy=0;fontFamily=Helvetica;" edge="1" parent="1" source="24794b860abc3c2d-1" target="24794b860abc3c2d-16">
          <mxGeometry relative="1" as="geometry" />
        </mxCell>
        <mxCell id="Pqw4lfBTpsAmDlQl7pAD-11" style="edgeStyle=orthogonalEdgeStyle;rounded=0;orthogonalLoop=1;jettySize=auto;html=1;entryX=0.5;entryY=0;entryDx=0;entryDy=0;fontFamily=Helvetica;startArrow=none;" edge="1" parent="1" source="Pqw4lfBTpsAmDlQl7pAD-12" target="Pqw4lfBTpsAmDlQl7pAD-1">
          <mxGeometry relative="1" as="geometry">
            <Array as="points">
              <mxPoint x="410" y="160" />
            </Array>
          </mxGeometry>
        </mxCell>
        <mxCell id="24794b860abc3c2d-1" value="&lt;p style=&quot;margin: 0px ; margin-top: 4px ; text-align: center ; text-decoration: underline&quot;&gt;&lt;b&gt;User&lt;/b&gt;&lt;/p&gt;&lt;p style=&quot;margin: 4px 0px 0px; text-align: center;&quot;&gt;username: string&lt;br&gt;firstname: string&lt;br&gt;lastname: string&lt;br&gt;email: string&lt;br&gt;&lt;br&gt;&lt;/p&gt;" style="verticalAlign=top;align=left;overflow=fill;fontSize=12;fontFamily=Helvetica;html=1;rounded=0;shadow=0;comic=0;labelBackgroundColor=none;strokeWidth=1" parent="1" vertex="1">
          <mxGeometry x="40" y="110" width="140" height="180" as="geometry" />
        </mxCell>
        <mxCell id="Pqw4lfBTpsAmDlQl7pAD-5" style="edgeStyle=orthogonalEdgeStyle;rounded=0;orthogonalLoop=1;jettySize=auto;html=1;entryX=0.75;entryY=1;entryDx=0;entryDy=0;fontFamily=Helvetica;" edge="1" parent="1" source="24794b860abc3c2d-16" target="24794b860abc3c2d-1">
          <mxGeometry relative="1" as="geometry">
            <Array as="points">
              <mxPoint x="145" y="410" />
              <mxPoint x="145" y="410" />
            </Array>
          </mxGeometry>
        </mxCell>
        <mxCell id="Pqw4lfBTpsAmDlQl7pAD-9" style="edgeStyle=orthogonalEdgeStyle;rounded=0;orthogonalLoop=1;jettySize=auto;html=1;fontFamily=Helvetica;" edge="1" parent="1" source="24794b860abc3c2d-16" target="Pqw4lfBTpsAmDlQl7pAD-1">
          <mxGeometry relative="1" as="geometry" />
        </mxCell>
        <mxCell id="24794b860abc3c2d-16" value="&lt;p style=&quot;margin: 0px ; margin-top: 4px ; text-align: center ; text-decoration: underline&quot;&gt;&lt;b&gt;Post&lt;/b&gt;&lt;/p&gt;&lt;p style=&quot;margin: 4px 0px 0px; text-align: center;&quot;&gt;primarykey: int&lt;br&gt;comments: foreignKey&lt;br&gt;title: string&lt;br&gt;date: dateTime&lt;br&gt;content: string&lt;br&gt;likes: int&lt;/p&gt;&lt;p style=&quot;margin: 4px 0px 0px; text-align: center;&quot;&gt;&lt;br&gt;&lt;/p&gt;" style="verticalAlign=top;align=left;overflow=fill;fontSize=12;fontFamily=Helvetica;html=1;rounded=0;shadow=0;comic=0;labelBackgroundColor=none;strokeWidth=1" parent="1" vertex="1">
          <mxGeometry x="40" y="445" width="140" height="150" as="geometry" />
        </mxCell>
        <mxCell id="Pqw4lfBTpsAmDlQl7pAD-7" style="edgeStyle=orthogonalEdgeStyle;rounded=0;orthogonalLoop=1;jettySize=auto;html=1;entryX=1;entryY=0.5;entryDx=0;entryDy=0;fontFamily=Helvetica;" edge="1" parent="1" source="Pqw4lfBTpsAmDlQl7pAD-1" target="24794b860abc3c2d-1">
          <mxGeometry relative="1" as="geometry" />
        </mxCell>
        <mxCell id="Pqw4lfBTpsAmDlQl7pAD-1" value="&lt;p style=&quot;margin: 0px ; margin-top: 4px ; text-align: center ; text-decoration: underline&quot;&gt;&lt;b&gt;Comments&lt;/b&gt;&lt;/p&gt;&lt;p style=&quot;margin: 4px 0px 0px; text-align: center;&quot;&gt;belongs to: user&lt;br&gt;belongs to: post&lt;/p&gt;&lt;p style=&quot;margin: 4px 0px 0px; text-align: center;&quot;&gt;primarykey: int&lt;br&gt;user: foreignKey&lt;br&gt;post: foreignKey&lt;/p&gt;&lt;p style=&quot;margin: 4px 0px 0px; text-align: center;&quot;&gt;content: string&lt;br&gt;date: dateTime&lt;br&gt;likes: int&lt;/p&gt;" style="verticalAlign=top;align=left;overflow=fill;fontSize=12;fontFamily=Helvetica;html=1;rounded=0;shadow=0;comic=0;labelBackgroundColor=none;strokeWidth=1" vertex="1" parent="1">
          <mxGeometry x="340" y="290" width="140" height="150" as="geometry" />
        </mxCell>
        <mxCell id="Pqw4lfBTpsAmDlQl7pAD-4" value="Has_many" style="text;html=1;align=center;verticalAlign=middle;resizable=0;points=[];autosize=1;strokeColor=none;fillColor=none;fontFamily=Helvetica;" vertex="1" parent="1">
          <mxGeometry x="40" y="340" width="70" height="20" as="geometry" />
        </mxCell>
        <mxCell id="Pqw4lfBTpsAmDlQl7pAD-6" value="Belongs_to" style="text;html=1;align=center;verticalAlign=middle;resizable=0;points=[];autosize=1;strokeColor=none;fillColor=none;fontFamily=Helvetica;" vertex="1" parent="1">
          <mxGeometry x="140" y="340" width="80" height="20" as="geometry" />
        </mxCell>
        <mxCell id="Pqw4lfBTpsAmDlQl7pAD-8" value="Belongs_to" style="text;html=1;align=center;verticalAlign=middle;resizable=0;points=[];autosize=1;strokeColor=none;fillColor=none;fontFamily=Helvetica;" vertex="1" parent="1">
          <mxGeometry x="250" y="250" width="80" height="20" as="geometry" />
        </mxCell>
        <mxCell id="Pqw4lfBTpsAmDlQl7pAD-10" value="Has_many" style="text;html=1;align=center;verticalAlign=middle;resizable=0;points=[];autosize=1;strokeColor=none;fillColor=none;fontFamily=Helvetica;" vertex="1" parent="1">
          <mxGeometry x="260" y="520" width="70" height="20" as="geometry" />
        </mxCell>
        <mxCell id="Pqw4lfBTpsAmDlQl7pAD-12" value="Has_many" style="text;html=1;align=center;verticalAlign=middle;resizable=0;points=[];autosize=1;strokeColor=none;fillColor=none;fontFamily=Helvetica;" vertex="1" parent="1">
          <mxGeometry x="310" y="150" width="70" height="20" as="geometry" />
        </mxCell>
        <mxCell id="Pqw4lfBTpsAmDlQl7pAD-13" value="" style="edgeStyle=orthogonalEdgeStyle;rounded=0;orthogonalLoop=1;jettySize=auto;html=1;entryX=0.5;entryY=0;entryDx=0;entryDy=0;fontFamily=Helvetica;endArrow=none;" edge="1" parent="1" source="24794b860abc3c2d-1" target="Pqw4lfBTpsAmDlQl7pAD-12">
          <mxGeometry relative="1" as="geometry">
            <mxPoint x="180" y="160" as="sourcePoint" />
            <mxPoint x="410" y="290" as="targetPoint" />
            <Array as="points">
              <mxPoint x="225" y="200" />
              <mxPoint x="225" y="160" />
              <mxPoint x="305" y="160" />
            </Array>
          </mxGeometry>
        </mxCell>
      </root>
    </mxGraphModel>
  </diagram>
</mxfile>
